<svg width="921" height="741" viewBox="0 0 921 741" fill="none" xmlns="http://www.w3.org/2000/svg">
<g clip-path="url(#clip0_4_405)">
<path d="M823.25 362C823.25 368.65 823.07 375.253 822.71 381.81C821.403 406.324 817.596 430.64 811.35 454.38C811.34 454.39 811.34 454.39 811.35 454.4C810.53 457.54 809.66 460.67 808.74 463.77C808.7 463.92 808.66 464.06 808.61 464.2C807.25 468.85 805.796 473.457 804.25 478.02V478.03C779.945 549.727 733.791 612.008 672.27 656.126C610.749 700.243 536.954 723.979 461.25 724C290.02 724 146.57 605.13 108.91 445.4C102.472 418.068 99.2299 390.08 99.2496 362C99.2496 356.42 99.3763 350.87 99.6296 345.35C102.63 277.868 124.548 212.59 162.88 156.97C163.34 156.29 163.81 155.61 164.29 154.94C229.71 61.27 338.33 0 461.25 0C634.97 0 780.1 122.36 815.16 285.6C815.165 285.605 815.169 285.612 815.17 285.62C817.43 296.14 819.223 306.82 820.55 317.66C822.355 332.371 823.257 347.179 823.25 362Z" fill="#F2F2F2"/>
<path d="M917.516 665.622C914.812 675.396 910.59 684.686 905.005 693.151C892.525 712.021 874.666 726.452 855.036 738.002C853.676 738.812 852.296 739.602 850.916 740.382H837.146L836.666 739.281V739.271L836.106 738.002L836.036 737.852L836.005 738.002L835.456 740.382H828.696C828.136 739.592 827.586 738.802 827.046 738.002C826.256 736.832 825.496 735.651 824.776 734.451C823.505 732.353 822.369 730.175 821.376 727.932C821.256 727.682 821.156 727.432 821.056 727.182L821.506 726.692L819.636 718.512L823.396 717.891L819.276 705.182C819.426 704.712 819.596 704.241 819.776 703.771C822.086 697.921 826.426 693.552 831.576 689.882C836.876 686.092 843.046 683.051 848.716 679.891C851.376 678.401 853.996 676.832 856.546 675.172V675.161C859.806 673.051 862.969 670.795 866.036 668.391C866.088 668.358 866.138 668.321 866.186 668.281C866.228 668.251 866.268 668.218 866.306 668.182C880.054 657.441 891.688 644.24 900.616 629.252L900.62 629.251L900.623 629.249L900.625 629.245L900.626 629.242C900.926 628.762 901.206 628.282 901.486 627.792V627.782C905.142 621.493 908.288 614.922 910.896 608.132V608.122C911.096 607.622 911.276 607.122 911.466 606.622C911.726 607.062 911.976 607.502 912.216 607.942L912.219 607.942L912.223 607.944L912.225 607.948L912.226 607.952C921.926 625.301 922.846 646.202 917.516 665.622Z" fill="#F0F0F0"/>
<path d="M912.226 607.951C912.323 617.211 911.36 626.451 909.356 635.491C908.455 639.629 907.333 643.714 905.996 647.731C903.399 655.591 900.004 663.163 895.866 670.331C895.636 670.721 895.416 671.101 895.176 671.481V671.491C893.407 674.474 891.488 677.364 889.426 680.151C886.305 684.592 882.45 688.468 878.026 691.611C874.412 693.999 870.326 695.578 866.046 696.241C865.246 696.391 864.426 696.501 863.596 696.602C860.286 696.991 856.866 697.141 853.586 697.841C851.924 698.17 850.307 698.69 848.766 699.392C843.486 701.842 840.516 706.972 839.216 712.452C838.986 713.412 838.806 714.382 838.666 715.352C837.576 722.802 838.776 730.542 838.156 738.002C838.086 738.792 837.996 739.592 837.886 740.382H837.146L836.666 739.281V739.271C836.715 738.851 836.756 738.432 836.796 738.002C837.036 734.336 837.066 730.66 836.886 726.992C836.846 725.342 836.816 723.681 836.836 722.021C836.856 720.691 836.906 719.362 837.006 718.042V718.032C837.076 717.212 837.156 716.401 837.266 715.591C837.583 713.111 838.194 710.678 839.086 708.341C839.956 705.934 841.325 703.738 843.103 701.898C844.882 700.057 847.03 698.613 849.406 697.662C850.857 697.117 852.353 696.699 853.876 696.412C857.226 695.772 860.686 695.612 864.056 695.192C864.416 695.152 864.776 695.102 865.126 695.042C865.576 694.972 866.016 694.892 866.456 694.812C870.865 694.029 875.03 692.224 878.616 689.542C882.877 686.168 886.582 682.145 889.596 677.621C891.236 675.271 892.796 672.871 894.246 670.401C894.246 670.4 894.246 670.399 894.246 670.398C894.247 670.396 894.248 670.395 894.248 670.394C894.249 670.393 894.25 670.393 894.252 670.392C894.253 670.392 894.254 670.391 894.256 670.391C894.326 670.271 894.396 670.161 894.466 670.041L894.476 670.021C900.695 659.393 905.235 647.867 907.936 635.851C908.026 635.411 908.126 634.971 908.226 634.531C910.082 625.856 910.977 617.003 910.896 608.131V608.121C910.896 607.701 910.886 607.292 910.876 606.871C910.856 606.011 912.186 605.821 912.206 606.681C912.216 607.101 912.226 607.521 912.216 607.941C912.217 607.941 912.218 607.942 912.219 607.942C912.221 607.943 912.222 607.943 912.223 607.944C912.224 607.945 912.224 607.946 912.225 607.948C912.225 607.949 912.226 607.95 912.226 607.951Z" fill="white"/>
<path d="M894.605 671.21C898.415 673.146 902.79 673.664 906.947 672.672C911.104 671.68 914.773 669.242 917.299 665.795C917.808 665.095 916.745 664.272 916.236 664.972C913.889 668.187 910.471 670.457 906.598 671.373C902.725 672.289 898.652 671.79 895.115 669.967C894.346 669.572 893.84 670.817 894.605 671.21Z" fill="white"/>
<path d="M866.584 695.21C863.799 686.929 864.238 677.902 867.813 669.931C868.168 669.141 866.924 668.632 866.57 669.421C862.865 677.723 862.427 687.117 865.344 695.729C865.622 696.549 866.861 696.026 866.584 695.21Z" fill="white"/>
<path d="M908.612 634.654C906.981 634.212 905.486 633.373 904.261 632.21C903.035 631.048 902.117 629.6 901.59 627.995C901.322 627.171 900.083 627.695 900.35 628.514C900.941 630.284 901.956 631.882 903.308 633.169C904.659 634.457 906.305 635.393 908.102 635.898C908.267 635.959 908.45 635.956 908.613 635.888C908.776 635.82 908.906 635.692 908.979 635.531C909.045 635.366 909.044 635.181 908.976 635.017C908.907 634.853 908.776 634.723 908.612 634.654Z" fill="white"/>
<path d="M856.545 675.161V675.172C856.235 682.312 855.342 689.416 853.876 696.411V696.422C853.795 696.902 853.686 697.372 853.586 697.842C851.172 708.661 847.788 719.24 843.475 729.452C842.286 732.332 841.039 735.182 839.735 738.002C839.376 738.802 839.005 739.592 838.626 740.382H837.146L836.665 739.282V739.272L836.106 738.002L836.035 737.852L836.005 738.002L835.456 740.382H821.155L818.376 738.002L814.326 734.532L819.985 728.352L820.915 727.332L821.055 727.182L821.505 726.692L819.636 718.512L823.395 717.892L819.275 705.182L817.325 699.172L816.835 697.662L813.985 688.872L805.385 690.482L803.985 685.582C806.563 679.606 808.709 673.454 810.405 667.172C810.415 667.122 810.435 667.082 810.445 667.032C814.989 650.11 816.352 632.491 814.465 615.072V615.062C814.405 614.502 814.335 613.932 814.255 613.382V613.362C813.398 606.143 811.953 599.006 809.935 592.022C809.795 591.492 809.635 590.972 809.485 590.452C809.945 590.652 810.395 590.842 810.855 591.042L810.865 591.052H810.885C811.615 591.372 812.345 591.712 813.055 592.072C830.115 600.362 842.665 615.922 849.795 633.862C849.815 633.912 849.835 633.952 849.855 634.002C853.576 643.406 855.793 653.338 856.425 663.432C856.665 667.337 856.705 671.252 856.545 675.161Z" fill="#F0F0F0"/>
<path d="M830.595 740.382H829.015C828.515 739.572 827.975 738.782 827.435 738.002C826.575 736.792 825.689 735.608 824.775 734.452C823.985 733.452 823.195 732.461 822.405 731.471C821.585 730.441 820.775 729.412 819.985 728.352L820.915 727.332C821.065 727.532 821.215 727.732 821.375 727.932C823.935 731.302 826.705 734.542 829.075 738.002C829.605 738.782 830.115 739.572 830.595 740.382Z" fill="white"/>
<path d="M809.154 591.01C809.414 591.34 809.683 591.68 809.933 592.02C811.883 594.55 813.727 597.16 815.464 599.85C818.556 604.596 821.304 609.559 823.683 614.7C823.873 615.1 824.063 615.51 824.243 615.92C829.336 627.154 832.656 639.109 834.084 651.36C834.104 651.48 834.113 651.59 834.123 651.71C834.453 654.57 834.667 657.44 834.764 660.32C835.082 665.744 834.546 671.184 833.173 676.44C832.973 677.13 832.754 677.81 832.514 678.47C831.912 680.088 831.159 681.645 830.264 683.12C829.62 684.197 828.905 685.229 828.123 686.21C827.653 686.81 827.164 687.4 826.644 687.97C826.344 688.3 826.034 688.63 825.724 688.96C825.464 689.21 825.214 689.47 824.954 689.72C822.254 692.34 819.274 694.77 816.834 697.66L817.324 699.17C819.674 696.19 822.703 693.72 825.433 691.12C827.147 689.509 828.707 687.741 830.094 685.84C830.274 685.58 830.464 685.32 830.634 685.05C831.56 683.697 832.36 682.26 833.023 680.76C833.363 680.01 833.673 679.24 833.953 678.44C835.587 673.27 836.331 667.86 836.153 662.44C836.121 658.969 835.914 655.501 835.533 652.05C835.493 651.6 835.443 651.16 835.383 650.71C834.369 642.497 832.52 634.408 829.863 626.57C826.501 616.627 821.877 607.156 816.103 598.39C814.453 595.88 812.703 593.43 810.853 591.04C810.613 590.71 810.363 590.39 810.103 590.06C809.574 589.38 808.624 590.33 809.154 591.01Z" fill="white"/>
<path d="M834.907 652.177C839.115 651.428 842.92 649.208 845.642 645.913C848.364 642.618 849.826 638.462 849.767 634.189C849.763 634.015 849.691 633.849 849.567 633.726C849.444 633.604 849.277 633.534 849.103 633.532C848.928 633.53 848.76 633.595 848.633 633.715C848.506 633.834 848.431 633.998 848.423 634.173C848.485 638.152 847.122 642.022 844.582 645.086C842.041 648.149 838.488 650.203 834.566 650.877C833.714 651.024 834.06 652.323 834.907 652.177Z" fill="white"/>
<path d="M826.984 688.209C819.775 683.274 814.691 675.803 812.746 667.285C812.554 666.441 811.254 666.783 811.446 667.627C813.486 676.486 818.793 684.25 826.306 689.37C827.023 689.857 827.696 688.694 826.984 688.209Z" fill="white"/>
<path d="M824.082 614.555C822.514 615.184 820.815 615.414 819.137 615.224C817.458 615.034 815.853 614.43 814.466 613.466C813.756 612.97 813.083 614.134 813.788 614.627C815.326 615.684 817.099 616.349 818.953 616.563C820.807 616.777 822.685 616.534 824.424 615.855C824.593 615.805 824.737 615.692 824.826 615.54C824.915 615.387 824.942 615.207 824.903 615.034C824.857 614.863 824.745 614.716 824.591 614.626C824.437 614.536 824.254 614.511 824.082 614.555Z" fill="white"/>
<path d="M633.317 156.974H0.993286C0.727862 156.968 0.475267 156.859 0.289612 156.669C0.103956 156.479 0 156.224 0 155.959C0 155.693 0.103956 155.438 0.289612 155.249C0.475267 155.059 0.727862 154.949 0.993286 154.943H633.317C633.582 154.949 633.835 155.059 634.02 155.249C634.206 155.438 634.31 155.693 634.31 155.959C634.31 156.224 634.206 156.479 634.02 156.669C633.835 156.859 633.582 156.968 633.317 156.974Z" fill="#CACACA"/>
<path d="M23.3482 142.759C29.3821 142.759 34.2735 137.759 34.2735 131.591C34.2735 125.422 29.3821 120.422 23.3482 120.422C17.3143 120.422 12.4229 125.422 12.4229 131.591C12.4229 137.759 17.3143 142.759 23.3482 142.759Z" fill="#3F3D56"/>
<path d="M61.0904 142.759C67.1243 142.759 72.0157 137.759 72.0157 131.591C72.0157 125.422 67.1243 120.422 61.0904 120.422C55.0565 120.422 50.165 125.422 50.165 131.591C50.165 137.759 55.0565 142.759 61.0904 142.759Z" fill="#3F3D56"/>
<path d="M98.8326 142.759C104.866 142.759 109.758 137.759 109.758 131.591C109.758 125.422 104.866 120.422 98.8326 120.422C92.7987 120.422 87.9072 125.422 87.9072 131.591C87.9072 137.759 92.7987 142.759 98.8326 142.759Z" fill="#3F3D56"/>
<path d="M610.7 123.19H583.89C583.358 123.2 582.852 123.419 582.48 123.799C582.108 124.178 581.899 124.688 581.899 125.22C581.899 125.751 582.108 126.262 582.48 126.641C582.852 127.021 583.358 127.239 583.89 127.25H610.7C611.231 127.239 611.737 127.021 612.109 126.641C612.481 126.262 612.69 125.751 612.69 125.22C612.69 124.688 612.481 124.178 612.109 123.799C611.737 123.419 611.231 123.2 610.7 123.19Z" fill="#3F3D56"/>
<path d="M610.7 130.81H583.89C583.358 130.82 582.852 131.039 582.48 131.419C582.108 131.798 581.899 132.308 581.899 132.84C581.899 133.371 582.108 133.882 582.48 134.261C582.852 134.641 583.358 134.859 583.89 134.87H610.7C611.231 134.859 611.737 134.641 612.109 134.261C612.481 133.882 612.69 133.371 612.69 132.84C612.69 132.308 612.481 131.798 612.109 131.419C611.737 131.039 611.231 130.82 610.7 130.81Z" fill="#3F3D56"/>
<path d="M610.7 138.42H583.89C583.358 138.43 582.852 138.649 582.48 139.029C582.108 139.408 581.899 139.918 581.899 140.45C581.899 140.981 582.108 141.492 582.48 141.871C582.852 142.251 583.358 142.469 583.89 142.48H610.7C611.231 142.469 611.737 142.251 612.109 141.871C612.481 141.492 612.69 140.981 612.69 140.45C612.69 139.918 612.481 139.408 612.109 139.029C611.737 138.649 611.231 138.43 610.7 138.42Z" fill="#3F3D56"/>
<path d="M166.66 198.35H138.27C122.258 229.873 110.987 263.586 104.82 298.4H166.66C168.63 298.403 170.582 298.018 172.404 297.265C174.225 296.513 175.88 295.408 177.274 294.014C178.667 292.621 179.772 290.966 180.525 289.144C181.277 287.323 181.663 285.371 181.66 283.4V213.34C181.654 209.364 180.072 205.553 177.26 202.743C174.448 199.932 170.635 198.353 166.66 198.35Z" fill="#CCCCCC"/>
<path d="M376.97 198.35H248.34C244.364 198.353 240.552 199.932 237.739 202.743C234.927 205.553 233.345 209.364 233.34 213.34V283.4C233.344 287.377 234.926 291.189 237.738 294.001C240.55 296.813 244.363 298.395 248.34 298.4H376.97C380.946 298.395 384.759 296.813 387.571 294.001C390.383 291.189 391.965 287.377 391.97 283.4V213.34C391.964 209.364 390.382 205.553 387.57 202.743C384.758 199.932 380.945 198.353 376.97 198.35Z" fill="#CCCCCC"/>
<path d="M587.28 198.35H458.65C454.674 198.353 450.862 199.932 448.049 202.743C445.237 205.553 443.655 209.364 443.65 213.34V283.4C443.654 287.377 445.236 291.189 448.048 294.001C450.86 296.813 454.673 298.395 458.65 298.4H587.28C591.256 298.395 595.069 296.813 597.881 294.001C600.693 291.189 602.275 287.377 602.28 283.4V213.34C602.274 209.364 600.692 205.553 597.88 202.743C595.068 199.932 591.255 198.353 587.28 198.35Z" fill="#CCCCCC"/>
<path d="M166.66 345.35H99.6296C99.3796 350.87 99.2529 356.42 99.2496 362C99.2299 390.08 102.472 418.068 108.91 445.4H166.66C170.636 445.395 174.449 443.813 177.261 441.001C180.073 438.189 181.655 434.377 181.66 430.4V360.34C181.654 356.364 180.072 352.553 177.26 349.743C174.448 346.932 170.635 345.353 166.66 345.35Z" fill="#CCCCCC"/>
<path d="M376.97 345.35H248.34C244.364 345.353 240.552 346.932 237.739 349.743C234.927 352.553 233.345 356.364 233.34 360.34V430.4C233.344 434.377 234.926 438.189 237.738 441.001C240.55 443.813 244.363 445.395 248.34 445.4H376.97C380.946 445.395 384.759 443.813 387.571 441.001C390.383 438.189 391.965 434.377 391.97 430.4V360.34C391.964 356.364 390.382 352.553 387.57 349.743C384.758 346.932 380.945 345.353 376.97 345.35Z" fill="#CCCCCC"/>
<path d="M587.28 345.35H458.65C454.674 345.353 450.862 346.932 448.049 349.743C445.237 352.553 443.655 356.364 443.65 360.34V430.4C443.654 434.377 445.236 438.189 448.048 441.001C450.86 443.813 454.673 445.395 458.65 445.4H587.28C587.69 445.4 588.1 445.38 588.51 445.34C590.117 445.222 591.692 444.833 593.17 444.19C595.849 443.044 598.136 441.143 599.754 438.719C601.371 436.295 602.249 433.454 602.28 430.54V360.34C602.274 356.364 600.692 352.553 597.88 349.743C595.068 346.932 591.255 345.353 587.28 345.35Z" fill="#CCCCCC"/>
<path d="M169.344 315.132C185.78 315.132 199.103 301.809 199.103 285.373C199.103 268.938 185.78 255.614 169.344 255.614C152.909 255.614 139.585 268.938 139.585 285.373C139.585 301.809 152.909 315.132 169.344 315.132Z" fill="#3578E5"/>
<path d="M165.284 300.861C164.771 300.861 164.264 300.742 163.804 300.512C163.344 300.282 162.945 299.948 162.636 299.537L154.518 288.712C154.257 288.364 154.067 287.968 153.959 287.547C153.851 287.126 153.828 286.688 153.889 286.258C153.95 285.827 154.096 285.413 154.318 285.039C154.539 284.665 154.832 284.338 155.18 284.078C155.528 283.817 155.923 283.627 156.345 283.519C156.766 283.411 157.204 283.387 157.634 283.449C158.065 283.51 158.479 283.656 158.853 283.878C159.227 284.099 159.553 284.392 159.814 284.74L165.126 291.821L178.768 271.358C179.009 270.996 179.319 270.685 179.68 270.443C180.041 270.2 180.447 270.031 180.873 269.946C181.3 269.86 181.739 269.86 182.166 269.944C182.593 270.028 182.999 270.196 183.361 270.437C183.723 270.679 184.033 270.989 184.275 271.35C184.517 271.712 184.686 272.118 184.771 272.544C184.856 272.971 184.856 273.41 184.771 273.837C184.686 274.263 184.518 274.669 184.277 275.031L168.039 299.387C167.745 299.828 167.35 300.191 166.887 300.448C166.424 300.704 165.906 300.846 165.377 300.86C165.346 300.861 165.315 300.861 165.284 300.861Z" fill="white"/>
<path d="M386.344 318.132C402.78 318.132 416.103 304.809 416.103 288.373C416.103 271.938 402.78 258.614 386.344 258.614C369.909 258.614 356.585 271.938 356.585 288.373C356.585 304.809 369.909 318.132 386.344 318.132Z" fill="#3578E5"/>
<path d="M382.284 303.861C381.771 303.861 381.264 303.742 380.804 303.512C380.344 303.282 379.945 302.948 379.636 302.537L371.518 291.712C371.257 291.364 371.067 290.968 370.959 290.547C370.851 290.126 370.828 289.688 370.889 289.258C370.95 288.827 371.096 288.413 371.318 288.039C371.539 287.665 371.832 287.338 372.18 287.078C372.528 286.817 372.923 286.627 373.345 286.519C373.766 286.411 374.204 286.387 374.634 286.449C375.065 286.51 375.479 286.656 375.853 286.877C376.227 287.099 376.553 287.392 376.814 287.74L382.126 294.821L395.768 274.358C396.255 273.629 397.012 273.123 397.873 272.951C398.733 272.78 399.626 272.957 400.356 273.443C401.086 273.93 401.593 274.687 401.766 275.547C401.938 276.407 401.762 277.3 401.277 278.031L385.039 302.387C384.745 302.828 384.35 303.191 383.887 303.448C383.424 303.704 382.906 303.845 382.377 303.86C382.346 303.861 382.315 303.861 382.284 303.861Z" fill="white"/>
<path d="M811.31 448.735L801.995 358.571L799.537 321.463L825.609 316.749C825.609 316.749 829.513 342.259 832.929 357.229C836.299 372.002 828.439 446.756 828.23 448.727C830.145 450.439 831.495 452.692 832.101 455.188C832.708 457.684 832.542 460.306 831.626 462.706C830.71 465.105 829.087 467.171 826.972 468.628C824.857 470.086 822.349 470.867 819.781 470.868C817.212 470.869 814.704 470.09 812.587 468.635C810.471 467.18 808.846 465.116 807.928 462.717C807.01 460.318 806.842 457.697 807.445 455.2C808.049 452.704 809.397 450.449 811.31 448.735Z" fill="#A0616A"/>
<path d="M744.583 717.124L731.653 720.08L714.099 671.614L733.182 667.251L744.583 717.124Z" fill="#A0616A"/>
<path d="M746.92 712.15L743.62 712.9L743.28 712.98L728.19 710.52L727.75 710.45L721.45 717.97C717.146 718.955 713.409 721.608 711.061 725.348C708.713 729.087 707.946 733.606 708.93 737.91L708.95 738L709.06 738.44L710.98 738L750.75 728.9L746.92 712.15Z" fill="#2F2E41"/>
<path d="M821.665 725.578H808.401L802.092 674.418L821.667 674.419L821.665 725.578Z" fill="#A0616A"/>
<path d="M821.32 721.25L820.16 720.78L807.16 715.49L806.74 715.32L798.93 721.25C796.744 721.249 794.579 721.679 792.559 722.515C790.54 723.351 788.704 724.576 787.158 726.122C785.612 727.667 784.385 729.501 783.548 731.521C782.711 733.54 782.28 735.704 782.28 737.89V738.43L818.89 738.44H825.05V721.25H821.32Z" fill="#2F2E41"/>
<path d="M801.492 451.767L812.648 557.748C812.648 557.748 827.499 663.865 824.71 678.507C821.921 693.149 825.407 695.24 825.407 695.24L799.959 693.428C799.959 693.428 800.656 684.364 796.472 680.18C792.289 675.997 794.381 663.447 794.381 663.447L745.015 490.812L715.034 581.454C715.034 581.454 733.974 654.959 733.277 656.353C732.58 657.748 745.277 688.353 745.277 688.353L716.869 697.774C716.869 697.774 720.355 686.618 715.474 683.132C710.594 679.646 706.41 682.435 710.594 676.159C714.777 669.884 677.633 623.799 678.45 594.098C678.695 585.164 678.992 575.578 679.349 565.756C681.238 513.783 684.805 455.22 691.328 451.767C703.181 445.492 801.492 451.767 801.492 451.767Z" fill="#2F2E41"/>
<path d="M748.66 237.183C763.814 237.183 776.099 224.898 776.099 209.744C776.099 194.59 763.814 182.306 748.66 182.306C733.506 182.306 721.221 194.59 721.221 209.744C721.221 224.898 733.506 237.183 748.66 237.183Z" fill="#A0616A"/>
<path d="M840.277 377.353L803.018 386.811L803.277 376.353L800.449 373.353L794.799 343.756L788.8 267.129L809.389 278.049L809.414 278.068C813.009 282.023 816.016 286.476 818.342 291.288C826.103 307.067 833.559 341.821 837.462 362.007C837.596 362.431 837.855 362.804 838.205 363.077C840.141 364.855 841.404 367.246 841.782 369.846C842.159 372.447 841.628 375.099 840.277 377.353Z" fill="#3F3D56"/>
<path d="M620.1 411.262C620.1 411.262 671.528 357.043 672.007 356.021C675.6 328.741 685.932 316.707 687.481 318.013L714.149 327.252C714.149 327.252 706.217 352.371 700.846 367.291C695.714 381.548 636.568 416.371 635.581 418.09C636.641 420.43 636.965 423.037 636.511 425.565C636.058 428.093 634.847 430.424 633.04 432.249C631.232 434.074 628.913 435.308 626.39 435.787C623.866 436.265 621.257 435.967 618.906 434.93C616.556 433.893 614.576 432.167 613.228 429.981C611.88 427.795 611.228 425.25 611.357 422.685C611.487 420.12 612.392 417.654 613.953 415.614C615.514 413.574 617.658 412.057 620.1 411.262Z" fill="#A0616A"/>
<path d="M726.96 272.064C726.96 272.064 703.87 260.748 694.915 282.973C690.006 295.52 677.449 325.971 671.192 344.716C671.151 344.835 671.093 344.948 671.022 345.052C669.348 347.539 668.445 350.464 668.425 353.461C668.428 353.68 668.405 353.898 668.358 354.111C668.358 354.111 693.73 359.054 701.277 372.353L704.27 369.105L704.802 366.829L726.96 272.064Z" fill="#3F3D56"/>
<path d="M810.975 463.318C757.836 474.292 687.417 455.425 687.417 455.425L706.202 373.995L699.523 288.778C698.708 278.357 704.643 268.588 713.877 265.126L726.627 260.351L737.166 245.263L767.269 246.251L779.303 262.091L788.8 267.129L809.389 278.049L809.479 278.094V278.139L803.018 340.811L799.122 378.599C799.122 378.599 810.956 421.099 808.528 426.735C806.099 432.363 808.211 429.644 808.8 432.653C809.389 435.661 811.192 435.851 811.464 441.778C811.745 447.695 810.975 463.318 810.975 463.318Z" fill="#3F3D56"/>
<path d="M778.425 199.974C776.257 197.834 779.521 192.171 778.905 189.188C778.198 185.768 774.429 185.668 773.53 182.294C772.563 178.663 768.695 176.687 765.119 175.537C755.951 172.603 746.169 172.155 736.772 174.238C732.613 175.254 728.518 176.515 724.508 178.016C721.741 178.99 724.41 176.339 721.642 177.313C720.594 177.547 719.669 178.16 719.047 179.035C718.549 179.976 719.22 181.481 720.267 181.29C716.888 182.78 713.509 184.27 710.13 185.76C712.025 187.746 713.92 189.731 715.815 191.716C713.121 190.949 710.249 194.162 711.311 196.753C711.739 197.571 712.358 198.273 713.117 198.799C713.876 199.324 714.752 199.657 715.668 199.769C718.711 200.361 716.403 203.258 719.503 203.202C722.603 203.145 744.223 196.79 745.73 199.5C746.803 201.43 746.685 203.985 748.217 205.575C750.178 207.609 753.601 206.865 756.097 205.541C758.592 204.217 761.123 202.397 763.93 202.715C766.861 203.046 769.078 208.462 769.799 211.322C770.521 214.182 770.065 217.191 769.606 220.104C769.003 223.931 762.962 227.757 762.359 231.583C769.063 233.437 776.254 227.538 778.905 217.28C778.641 210.795 783.046 204.532 778.425 199.974Z" fill="#2F2E41"/>
<path d="M594.344 460.132C610.78 460.132 624.103 446.809 624.103 430.373C624.103 413.938 610.78 400.614 594.344 400.614C577.909 400.614 564.585 413.938 564.585 430.373C564.585 446.809 577.909 460.132 594.344 460.132Z" fill="#3578E5"/>
<path d="M590.284 445.861C589.771 445.861 589.264 445.742 588.804 445.512C588.344 445.282 587.945 444.948 587.636 444.537L579.518 433.712C579.257 433.364 579.067 432.968 578.959 432.547C578.851 432.126 578.828 431.688 578.889 431.258C578.95 430.827 579.096 430.413 579.318 430.039C579.539 429.665 579.832 429.338 580.18 429.078C580.528 428.817 580.923 428.627 581.345 428.519C581.766 428.411 582.204 428.387 582.634 428.449C583.065 428.51 583.479 428.656 583.853 428.878C584.227 429.099 584.553 429.392 584.814 429.74L590.126 436.821L603.768 416.358C604.009 415.996 604.319 415.685 604.68 415.443C605.041 415.2 605.447 415.031 605.873 414.946C606.3 414.86 606.739 414.86 607.166 414.944C607.593 415.028 607.999 415.196 608.361 415.437C608.723 415.679 609.033 415.989 609.275 416.35C609.517 416.712 609.686 417.118 609.771 417.544C609.856 417.971 609.856 418.41 609.771 418.837C609.686 419.263 609.518 419.669 609.277 420.031L593.039 444.387C592.745 444.828 592.35 445.191 591.887 445.448C591.424 445.704 590.906 445.846 590.377 445.86C590.346 445.861 590.315 445.861 590.284 445.861Z" fill="white"/>
<path d="M914.945 739.191C914.946 739.348 914.915 739.503 914.856 739.647C914.796 739.792 914.709 739.923 914.598 740.034C914.487 740.145 914.356 740.232 914.211 740.292C914.067 740.352 913.912 740.382 913.755 740.381H633.465C633.15 740.381 632.847 740.256 632.624 740.033C632.401 739.81 632.275 739.507 632.275 739.191C632.275 738.876 632.401 738.573 632.624 738.35C632.847 738.127 633.15 738.001 633.465 738.001H913.755C913.912 738.001 914.067 738.031 914.211 738.091C914.356 738.151 914.487 738.238 914.598 738.349C914.709 738.46 914.796 738.591 914.856 738.735C914.915 738.88 914.946 739.035 914.945 739.191Z" fill="#CCCCCC"/>
</g>
<defs>
<clipPath id="clip0_4_405">
<rect width="920.75" height="740.381" fill="white"/>
</clipPath>
</defs>
</svg>
